<svg xmlns="http://www.w3.org/2000/svg" width="1280" height="400" viewBox="0 0 1280 400">
  <rect width="1280" height="400" fill="#1E1E1E"/>
  <g transform="translate(540, 100)">
    <path d="M128,128a8,8,0,0,1-3,6.25l-40,32a8,8,0,1,1-10-12.5L107.19,128,75,102.25a8,8,0,1,1,10-12.5l40,32A8,8,0,0,1,128,128Zm48,24H136a8,8,0,0,0,0,16h40a8,8,0,0,0,0-16Zm56-96V200a16,16,0,0,1-16,16H40a16,16,0,0,1-16-16V56A16,16,0,0,1,40,40H216A16,16,0,0,1,232,56ZM216,200V56H40V200H216Z" fill="#2196F3" transform="scale(0.8)"/>
  </g>
  <text x="640" y="300" font-family="Arial" font-size="48" text-anchor="middle" fill="#FFFFFF">Code Commands</text>
  <text x="640" y="350" font-family="Arial" font-size="24" text-anchor="middle" fill="#CCCCCC">Gerencie seus comandos personalizados</text>
</svg>
